<?xml version="1.0" encoding="UTF-8"?>
<svg  version="1.1" viewBox="0 0 700 700" xmlns="http://www.w3.org/2000/svg" xmlns:xlink="http://www.w3.org/1999/xlink">
 
 <g>
  <path d="m534.96 382.67v-243.22c0-24.031-19.469-43.531-43.504-43.531-8.8359 0.007813-16.969 2.7305-23.82 7.2383v-27.672c0-24.043-19.496-43.52-43.531-43.531-9.5 0.007813-18.281 3.0781-25.438 8.2578-5.1133-18.348-21.91-31.812-41.875-31.812-24.023 0.007812-43.5 19.48-43.512 43.535v7.4727c-6.8555-4.5117-14.984-7.2305-23.801-7.2422-24.043 0.011719-43.523 19.48-43.535 43.523v136.98c-5.5859-7.9102-15.398-14.223-27.633-14.062-7.375 0.011719-15.395 2.0039-24.316 6.0664-2.9805 1.3555-4.9844 4.2109-5.2461 7.4844 0 0-0.023437 0.3125-0.17578 1.3945-1.0586 7.5547-7.6914 44.004-43.395 89.707-1.4023 1.793-2.0703 4.0312-1.8828 6.3008 0.050781 0.39062 4.6367 56.379 23.148 113.14 9.2969 28.398 22 57.059 40.051 79.266 17.871 22.09 42.039 38.031 72.301 38.031h0.17969c0.58594-0.011719 0.89453-0.011719 0.98438-0.011719l155.1 0.011719c55.184-0.011719 99.918-44.73 99.918-99.898l-0.003907-77.309c0-0.042969 0.011719-0.082031 0.011719-0.11719zm-289.02-73.77v55.895l-7.2812-2.1602c-0.75391-0.75391-2.8359-3.3711-2.9805-12.145-0.023438-8.1562 2.293-21.48 10.262-41.59zm189.12 233.07s-155.84 0.011719-156.07 0.011719c-23.793-0.085938-42.48-11.898-58.496-31.402-23.867-29.168-39.164-75.09-47.887-113.48-4.3984-19.215-7.2305-36.535-8.9727-49.039-1.0469-7.4961-1.6797-13.199-2.0273-16.562 32.91-43.133 41.961-78.871 44.332-92.262 5.0898-1.8906 9.2031-2.5898 12.375-2.5742 6.6953 0.15625 9.832 2.4258 13.242 6.9062 6.3164 8.4141 7.9414 25.852 7.7656 33.57 0 0.92578-0.011719 1.7031-0.023438 2.3086-16.457 34.066-21.59 55.977-21.641 71.059-0.44922 20.086 11.008 28.16 13.762 28.766l20.988 6.2773c1.3984 0.41016 7.375 0.83984 7.375 0.83984s3.2031 0.085937 8.7734 0.86328c17.094 2.2461 51.625 11.398 64.07 39.324 1.5195 3.2969 4.793 5.25 8.1875 5.25 1.2695 0 2.543-0.26562 3.7656-0.84766 4.5234-2.0781 6.5039-7.4297 4.418-11.953-11.66-25.137-34.434-37.625-53.305-43.918-13.777-4.5625-25.859-6.0469-31.703-6.5195l-0.003907-272.89c0.023438-14.082 11.418-25.461 25.492-25.484 10.863-0.023437 20.141 6.8203 23.805 16.414 0 0-0.007812 198.29-0.007812 198.37-0.019532 4.9883 3.9805 9.0391 8.9609 9.0664 4.9766 0.03125 9.0469-3.9883 9.0703-8.9727l0.003906-233.15c0.023438-14.094 11.418-25.473 25.48-25.5 14.082 0.023438 25.469 11.406 25.492 25.5v246.57c0 4.9727 4.0391 9.0156 9.0156 9.0156 4.9844 0 9.0234-4.043 9.0234-9.0156h-0.011719v-232.09c3.6719-9.6016 12.918-16.434 23.793-16.422 14.086 0.023437 25.473 11.418 25.5 25.492v232.43c0 4.9727 4.0312 9.0234 9.0156 9.0234s9.0273-4.0508 9.0273-9.0234h-0.011719l-0.003907-177.55c3.6836-9.582 12.941-16.406 23.82-16.395 14.074 0.023437 25.449 11.41 25.473 25.492v320.65c-0.078125 45.203-36.648 81.777-81.863 81.863z"/>
  <use x="85.980469" y="653.332031" xlink:href="#u"/>
  <use x="108.8125" y="653.332031" xlink:href="#d"/>
  <use x="124.15625" y="653.332031" xlink:href="#c"/>
  <use x="145.257812" y="653.332031" xlink:href="#i"/>
  <use x="166.25" y="653.332031" xlink:href="#b"/>
  <use x="181.121094" y="653.332031" xlink:href="#c"/>
  <use x="202.222656" y="653.332031" xlink:href="#h"/>
  <use x="235.324219" y="653.332031" xlink:href="#g"/>
  <use x="257.59375" y="653.332031" xlink:href="#m"/>
  <use x="288.707031" y="653.332031" xlink:href="#l"/>
  <use x="311.113281" y="653.332031" xlink:href="#b"/>
  <use x="325.984375" y="653.332031" xlink:href="#k"/>
  <use x="348.132812" y="653.332031" xlink:href="#h"/>
  <use x="370.402344" y="653.332031" xlink:href="#f"/>
  <use x="381.066406" y="653.332031" xlink:href="#a"/>
  <use x="413.269531" y="653.332031" xlink:href="#t"/>
  <use x="434.523438" y="653.332031" xlink:href="#f"/>
  <use x="445.1875" y="653.332031" xlink:href="#g"/>
  <use x="467.457031" y="653.332031" xlink:href="#a"/>
  <use x="488.832031" y="653.332031" xlink:href="#j"/>
  <use x="510.980469" y="653.332031" xlink:href="#i"/>
  <use x="531.972656" y="653.332031" xlink:href="#e"/>
  <use x="550.414062" y="653.332031" xlink:href="#e"/>
  <use x="568.855469" y="653.332031" xlink:href="#f"/>
  <use x="85.980469" y="684.445312" xlink:href="#s"/>
  <use x="99.515625" y="684.445312" xlink:href="#d"/>
  <use x="114.859375" y="684.445312" xlink:href="#a"/>
  <use x="136.234375" y="684.445312" xlink:href="#r"/>
  <use x="179.480469" y="684.445312" xlink:href="#b"/>
  <use x="194.355469" y="684.445312" xlink:href="#q"/>
  <use x="216.503906" y="684.445312" xlink:href="#c"/>
  <use x="248.433594" y="684.445312" xlink:href="#p"/>
  <use x="274.472656" y="684.445312" xlink:href="#a"/>
  <use x="295.84375" y="684.445312" xlink:href="#k"/>
  <use x="317.992188" y="684.445312" xlink:href="#j"/>
  <use x="350.972656" y="684.445312" xlink:href="#o"/>
  <use x="373.773437" y="684.445312" xlink:href="#d"/>
  <use x="389.117187" y="684.445312" xlink:href="#a"/>
  <use x="410.492188" y="684.445312" xlink:href="#n"/>
  <use x="421.15625" y="684.445312" xlink:href="#c"/>
  <use x="442.253906" y="684.445312" xlink:href="#e"/>
  <use x="460.699219" y="684.445312" xlink:href="#b"/>
 </g>
</svg>
