<?xml version="1.0" encoding="UTF-8"?>
<svg  version="1.1" viewBox="0 0 700 700" xmlns="http://www.w3.org/2000/svg" xmlns:xlink="http://www.w3.org/1999/xlink">
 
 <g>
  <path d="m497.54 226.97c-2.0547-0.28516-4.0898-0.44141-6.1172-0.44141-6.7188 0.007812-13.148 1.6133-18.922 4.4258 0-0.10547 0.023438-0.21875 0.023438-0.32422 0-21.387-15.723-39.977-37.465-43.051-2.0273-0.28125-4.0508-0.42188-6.0898-0.42188-6.9492 0.007813-13.551 1.7344-19.469 4.7148l18.555-142.38c0.28125-1.9727 0.40625-4.0195 0.40625-6.0156 0-21.391-15.723-39.973-37.465-43.051-2.0234-0.28516-4.0508-0.43359-6.082-0.43359-21.391 0-40.016 15.703-43.059 37.508l-31.109 206.88-54.152-198.41c-5.207-19.426-22.781-32.258-42.031-32.258-3.7227 0-7.5156 0.48047-11.293 1.4922-19.414 5.2383-32.242 22.785-32.23 42.023 0 3.7266 0.48438 7.5234 1.5 11.301l36.375 150.84c-3.6953 0.64844-7.5547 1.7188-11.609 3.2734-1.6055 0.60937-3.2031 1.2188-4.8672 1.9805-2.9805 1.3672-4.9844 4.2109-5.2461 7.4844 0 0-0.023437 0.32422-0.17578 1.4141-1.0586 7.543-7.7031 43.996-43.398 89.699v0.011719c-0.66016 0.84766-1.1367 1.8125-1.457 2.8125-0.019531 0.074219-0.0625 0.13672-0.09375 0.21875-0.28125 0.97656-0.37891 1.9961-0.31641 3.043 0 0.082031-0.03125 0.13672-0.023438 0.21094 0.050782 0.39062 4.6367 56.379 23.152 113.14 9.2969 28.406 22.008 57.07 40.051 79.285 17.879 22.113 42.059 38.047 72.359 38.047h0.13672c0.49609-0.011719 0.85938-0.011719 1.1094-0.011719l154.97 0.011719c55.184-0.011719 99.918-44.758 99.918-99.934l1.1562-183.96c0.28125-2.0664 0.42188-4.1016 0.41016-6.0977-0.011719-21.375-15.734-39.945-37.449-43.031zm-68.605-21.777h0.039062c1.168 0 2.3711 0.082032 3.5859 0.26172 12.723 1.7617 21.934 12.723 21.934 25.188 0 1.2148-0.09375 2.4062-0.24219 3.6016l-2.5898 18.418-10.234 72.758-1.2383 8.8789-2.1016 14.945c-0.023438 0.1875-0.097657 0.35547-0.125 0.52734-2.0156 12.434-12.805 21.41-25.07 21.391-1.1992 0-2.4062-0.0625-3.5859-0.22266-11.156-1.5625-19.574-10.156-21.512-20.652-0.011719-0.082031-0.039063-0.15625-0.0625-0.24219-0.25391-1.4453-0.37891-2.8945-0.37891-4.3945 0-1.1367 0.074219-2.2891 0.24219-3.4922l5.5547-39.504 7.0117-49.91 3.6094-25.617c0.34375-2.4453 1.0703-4.7305 2.0273-6.8711 0.097656-0.23828 0.16016-0.49219 0.28125-0.71484 4.1758-8.6016 13.086-14.348 22.855-14.348zm-191.81 157.42c-0.09375-0.097656-0.21094-0.21875-0.33594-0.37891-0.32812-0.42188-0.75391-1.1211-1.168-2.1602-0.070313-0.1875-0.13672-0.34766-0.21875-0.55469-0.007813-0.011719-0.011719-0.050781-0.019532-0.0625-0.62109-1.8594-1.1641-4.6797-1.2266-9.0039 0-0.50391 0.039062-1.0938 0.050781-1.6289 0.019531-0.65234 0.03125-1.3008 0.082031-2.0117 0.039063-0.58984 0.125-1.2383 0.17969-1.8672 0.082031-0.83984 0.16797-1.6719 0.28516-2.5625 0.09375-0.67187 0.21875-1.4258 0.33594-2.1406 0.15625-0.95313 0.32812-1.9336 0.52734-2.9688 0.15625-0.78906 0.32812-1.5977 0.51172-2.4336 0.097656-0.42188 0.21875-0.90234 0.31641-1.3359l5.4766 30.5zm278.25 97.453c-0.0625 45.215-36.668 81.809-81.875 81.902h-154.84c-0.46094 0-0.91016 0.011719-1.2305 0.011719-23.805-0.082031-42.496-11.898-58.508-31.402-23.867-29.168-39.156-75.098-47.879-113.49-4.3984-19.215-7.2422-36.531-8.9727-49.039-1.0469-7.5117-1.6797-13.211-2.0273-16.562 0.57812-0.76562 1.0938-1.5 1.668-2.2578 1.1836-1.5742 2.3516-3.1602 3.4727-4.7148 0.78906-1.1094 1.543-2.1836 2.3008-3.2656 1.082-1.5625 2.1719-3.1094 3.1992-4.6484 0.69141-1.0469 1.3555-2.0781 2.0273-3.1094 1-1.5352 2.0039-3.0742 2.9414-4.5859 0.60938-0.98438 1.1836-1.9492 1.7656-2.9297 0.91406-1.5234 1.8398-3.0352 2.6992-4.5352 0.52734-0.91406 1.0273-1.8125 1.5312-2.7188 0.84766-1.5195 1.6875-3.0195 2.4688-4.4844 0.44922-0.85938 0.86328-1.6602 1.293-2.4883 0.77344-1.4766 1.543-2.9727 2.2539-4.4102 0.39063-0.76563 0.72656-1.5117 1.0938-2.2656 0.69531-1.457 1.3984-2.918 2.0391-4.3164 0.3125-0.68359 0.58984-1.3516 0.90234-2.0273 0.62891-1.4297 1.2617-2.8555 1.8359-4.2305 0.25391-0.60938 0.48047-1.1836 0.72266-1.7812 0.56641-1.3984 1.1367-2.7891 1.6484-4.1172 0.19922-0.51562 0.375-1.0156 0.55859-1.5234 0.51172-1.3555 1.0156-2.7109 1.4609-4 0.14453-0.42188 0.27344-0.81641 0.42188-1.2305 0.44922-1.3203 0.89453-2.625 1.2891-3.8711 0.11719-0.35938 0.20703-0.68359 0.31641-1.0391 0.39062-1.25 0.77344-2.4883 1.1094-3.6523 0.082031-0.27344 0.13672-0.51562 0.21875-0.78516 0.33594-1.1836 0.65234-2.3516 0.93359-3.4414 0.070312-0.27344 0.12891-0.51172 0.1875-0.77734 0.26172-1.0312 0.51562-2.0547 0.72656-2.9883 0.097656-0.41797 0.16797-0.77344 0.25391-1.1641 0.15625-0.71484 0.32422-1.4492 0.45313-2.0898 0.20703-1.0195 0.37891-1.9531 0.53516-2.793 3.2617-1.2148 6.0859-1.8984 8.5508-2.2578 0.070313-0.007813 0.14453-0.011719 0.21094-0.023437 1.293-0.17969 2.5273-0.29688 3.6016-0.29688 2.1094 0 3.8281 0.29688 5.3125 0.77344 2.3164 0.76562 4.1758 1.9727 5.8633 3.6953 0.71094 0.72266 1.3945 1.5117 2.0586 2.4336 1.8164 2.4219 3.2109 5.625 4.3242 9.0898 2.75 8.5977 3.5898 19.008 3.4609 24.504 0 0.92188-0.011718 1.6875-0.023437 2.2891v0.023437c-0.48047 0.98828-0.87891 1.8906-1.332 2.8516-0.96875 2.0586-1.9492 4.1328-2.8516 6.0898-1.8672 4.1328-3.5039 8-5.0352 11.754-9.1914 22.625-12.371 38.598-12.402 50.352-0.042969 2.0898 0.10547 3.9805 0.29297 5.8164 1.3828 13.602 8.4922 20.395 12.027 22.367 0.57812 0.31641 1.0508 0.49609 1.3984 0.58594l0.29297 0.097657 0.51562 0.1875 17.199 5.082 2.9922 0.89062c0.80078 0.25 1.625 0.35547 2.4453 0.36719 0.042968 0 0.09375 0.011719 0.12891 0.011719 0.16016 0 0.3125-0.0625 0.47266-0.074219 0.31641-0.019531 0.63281-0.042968 0.94141-0.09375 2.7617 0.0625 15.723 0.62109 30.066 5.0977 16.297 5.0977 33.512 14.801 41.961 33.203 1.5195 3.3086 4.7852 5.2656 8.1992 5.2656 1.2578 0 2.5312-0.26562 3.7578-0.83984 4.5352-2.0898 6.4961-7.4375 4.4102-11.961-11.562-24.965-34.184-37.039-52.969-42.879-11.945-3.707-22.688-5.0781-29.281-5.6016l-5.5-30.652-2.3945-13.352-5.6016-22.418c0.81641-1.9023 1.582-3.7461 2.5-5.7695 1.4258-3.125 2.9297-6.3594 4.5742-9.7266l0.019532-0.050781c0.070312-0.12891 0.13672-0.27344 0.20703-0.41797 0.52344-1.0898 0.80859-2.1719 0.89453-3.3672 0.007813-0.12891 0.074219-1.2188 0.10547-3.0625 0.011719-0.60937 0.019531-1.3086 0.019531-2.0703-0.03125-1.7422-0.097656-3.9336-0.21875-6.3047-0.054687-1.082-0.125-2.1602-0.21094-3.3398-0.097657-1.25-0.21094-2.5508-0.36719-3.8945-1.0508-9.4141-3.6445-20.801-10.297-30.484-1.1992-1.7031-2.6367-3.3164-4.1875-4.8516-3.4531-3.4336-7.7109-6.3203-12.844-7.9766l-37.656-156.21c-0.64844-2.457-0.94141-4.6523-0.94141-6.8438 0.011719-11.238 7.5234-21.578 18.91-24.609 2.2031-0.60938 4.4062-0.87891 6.5898-0.87891 11.25 0 21.59 7.5117 24.629 18.914l59.191 216.89 4.0508 14.852c0.25391 0.93359 0.67969 1.7617 1.1836 2.5312 1.9531 2.9805 5.5312 4.5859 9.1641 3.9141 0.12891 0.023438 0.25 0.082031 0.37891 0.10547 4.9297 0.72656 9.5156-2.6641 10.262-7.5781l0.80078-5.3633 3.1719-21.125 32.289-214.82c1.7734-12.836 12.742-22.047 25.227-22.047 1.168 0 2.3594 0.085938 3.5703 0.25 12.738 1.7852 21.941 12.738 21.941 25.207-0.011719 1.207-0.085937 2.4141-0.25391 3.5977l-40.434 292.55c-0.28125 2.0039-0.41797 4.0273-0.40625 6.0234-0.011719 2.5156 0.20703 5.0352 0.63281 7.4805 3.1094 18.137 17.641 32.953 36.828 35.66 2.0469 0.28125 4.1016 0.41797 6.0898 0.41797 18.449 0 34.781-11.742 40.906-28.91 6.2852 5.8125 14.281 9.8867 23.395 11.176 1.9727 0.29687 3.9375 0.41797 5.8359 0.41797h0.26562c12.562 0 24.035-5.5078 32.07-14.375v102.53zm1.3242-186.46-1.5195 10.801-0.86328 6.1523-4.2188 29.98-1.6055 11.426c-0.20703 1.582-0.59766 3.125-1.125 4.6797-3.4766 10.219-13.246 17.273-24.066 17.246-1.2148 0-2.4141-0.070313-3.5977-0.24219-10.828-1.5117-19.027-9.6758-21.254-19.738-0.0625-0.29297-0.16797-0.55859-0.21875-0.84766-0.023437-0.097656-0.0625-0.17578-0.074219-0.26562-0.28125-1.4922-0.39062-2.9805-0.39062-4.4727 0-1.1133 0.074219-2.2539 0.24219-3.4609l5.2656-37.395 2.9492-20.98c0.21875-1.6172 0.62109-3.2422 1.168-4.7773 0.31641-0.94531 0.71484-1.8711 1.1562-2.7891 0.17969-0.35938 0.39844-0.67188 0.60547-1.0156 4.3633-8.0508 12.836-13.352 22.195-13.352h0.082032c1.168 0 2.3711 0.074218 3.5859 0.25h0.011719c12.711 1.7812 21.926 12.73 21.926 25.188-0.011719 1.2148-0.097656 2.418-0.25391 3.6133z"/>
  <use x="85.980469" y="653.332031" xlink:href="#u"/>
  <use x="108.8125" y="653.332031" xlink:href="#d"/>
  <use x="124.15625" y="653.332031" xlink:href="#c"/>
  <use x="145.257812" y="653.332031" xlink:href="#i"/>
  <use x="166.25" y="653.332031" xlink:href="#b"/>
  <use x="181.121094" y="653.332031" xlink:href="#c"/>
  <use x="202.222656" y="653.332031" xlink:href="#h"/>
  <use x="235.324219" y="653.332031" xlink:href="#g"/>
  <use x="257.59375" y="653.332031" xlink:href="#m"/>
  <use x="288.707031" y="653.332031" xlink:href="#l"/>
  <use x="311.113281" y="653.332031" xlink:href="#b"/>
  <use x="325.984375" y="653.332031" xlink:href="#k"/>
  <use x="348.132812" y="653.332031" xlink:href="#h"/>
  <use x="370.402344" y="653.332031" xlink:href="#f"/>
  <use x="381.066406" y="653.332031" xlink:href="#a"/>
  <use x="413.269531" y="653.332031" xlink:href="#t"/>
  <use x="434.523438" y="653.332031" xlink:href="#f"/>
  <use x="445.1875" y="653.332031" xlink:href="#g"/>
  <use x="467.457031" y="653.332031" xlink:href="#a"/>
  <use x="488.832031" y="653.332031" xlink:href="#j"/>
  <use x="510.980469" y="653.332031" xlink:href="#i"/>
  <use x="531.972656" y="653.332031" xlink:href="#e"/>
  <use x="550.414062" y="653.332031" xlink:href="#e"/>
  <use x="568.855469" y="653.332031" xlink:href="#f"/>
  <use x="85.980469" y="684.445312" xlink:href="#s"/>
  <use x="99.515625" y="684.445312" xlink:href="#d"/>
  <use x="114.859375" y="684.445312" xlink:href="#a"/>
  <use x="136.234375" y="684.445312" xlink:href="#r"/>
  <use x="179.480469" y="684.445312" xlink:href="#b"/>
  <use x="194.355469" y="684.445312" xlink:href="#q"/>
  <use x="216.503906" y="684.445312" xlink:href="#c"/>
  <use x="248.433594" y="684.445312" xlink:href="#p"/>
  <use x="274.472656" y="684.445312" xlink:href="#a"/>
  <use x="295.84375" y="684.445312" xlink:href="#k"/>
  <use x="317.992188" y="684.445312" xlink:href="#j"/>
  <use x="350.972656" y="684.445312" xlink:href="#o"/>
  <use x="373.773437" y="684.445312" xlink:href="#d"/>
  <use x="389.117187" y="684.445312" xlink:href="#a"/>
  <use x="410.492188" y="684.445312" xlink:href="#n"/>
  <use x="421.15625" y="684.445312" xlink:href="#c"/>
  <use x="442.253906" y="684.445312" xlink:href="#e"/>
  <use x="460.699219" y="684.445312" xlink:href="#b"/>
 </g>
</svg>
